<?xml version="1.0" encoding="utf-8"?>
<!-- Generator: Adobe Illustrator 25.2.1, SVG Export Plug-In . SVG Version: 6.00 Build 0)  -->
<svg version="1.1" id="Layer_1" xmlns="http://www.w3.org/2000/svg" xmlns:xlink="http://www.w3.org/1999/xlink" x="0px" y="0px"
	 viewBox="0 0 1920 1131" style="enable-background:new 0 0 1920 1131;" xml:space="preserve">
<style type="text/css">
	.st0{fill-rule:evenodd;clip-rule:evenodd;fill:url(#SVGID_1_);}
</style>
<linearGradient id="SVGID_1_" gradientUnits="userSpaceOnUse" x1="0" y1="566.5" x2="1920" y2="566.5" gradientTransform="matrix(1 0 0 -1 0 1132)">
	<stop  offset="0" style="stop-color:#000000;stop-opacity:0.7"/>
	<stop  offset="1" style="stop-color:#000000"/>
</linearGradient>
<path class="st0" d="M1920,0H0l0,731.4l0,163.4V1131l64-37.1c1.6-0.9,3.2-1.8,4.8-2.8C134.3,1053.8,259.1,982.6,384,983
	c67.3-0.2,134.6,20.4,201.9,41c60.7,18.6,121.4,37.2,182.1,40.5c97,5.3,194.1-27,291.1-59.2c31-10.3,61.9-20.6,92.9-29.6
	c128-37.5,256-51.3,384-37c128,14.8,256,59.2,320,81.4l64,22.2V894.8V731.4V0z"/>
</svg>
